<svg height="512" viewBox="0 0 64 64" width="512" xmlns="http://www.w3.org/2000/svg"><g id="video_file" data-name="video file"><path d="m61 14v42a2.006 2.006 0 0 1 -2 2h-54a2.006 2.006 0 0 1 -2-2v-44h56a2.006 2.006 0 0 1 2 2zm-10 21a19 19 0 1 0 -19 19 19 19 0 0 0 19-19z" fill="#ffeb99"/><path d="m32 16a19 19 0 1 1 -19 19 19 19 0 0 1 19-19zm-7 30 18-11-18-11z" fill="#57a4ff"/><path d="m43 35-18 11v-22z" fill="#ff7956"/><path d="m27 6 4 6h-28v-4a2.006 2.006 0 0 1 2-2z" fill="#00e7f0"/><path d="m59 11h-27.465l-3.7-5.555a1 1 0 0 0 -.835-.445h-22a3 3 0 0 0 -3 3v48a3 3 0 0 0 3 3h54a3 3 0 0 0 3-3v-42a3 3 0 0 0 -3-3zm-54-4h21.465l2.667 4h-25.132v-3a1 1 0 0 1 1-1zm55 49a1 1 0 0 1 -1 1h-54a1 1 0 0 1 -1-1v-43h55a1 1 0 0 1 1 1z"/><path d="m32 15a20 20 0 1 0 20 20 20.023 20.023 0 0 0 -20-20zm0 38a18 18 0 1 1 18-18 18.021 18.021 0 0 1 -18 18z"/><path d="m43.521 34.146-18-11a1 1 0 0 0 -1.521.854v22a1 1 0 0 0 1.521.854l18-11a1 1 0 0 0 0-1.708zm-17.521 10.071v-18.434l15.082 9.217z"/></g></svg>