<svg xmlns="http://www.w3.org/2000/svg" viewBox="0 0 80 80" width="30px" height="30px"><path fill="#f78f8f" fill-rule="evenodd" d="M40,77.5c-8.803-0.002-20.592-0.212-25.104-0.598 c-7.8-0.688-8.05-9.424-8.291-17.872c-0.03-1.064-0.061-2.122-0.105-3.156c0-4.754,0.47-10.246,1.226-14.311 c1.521-6.45,5.154-6.564,11.172-6.752c0.891-0.028,1.822-0.057,2.793-0.111c0.006,0,0.546-0.008,1.13-0.021 c2.344-0.053,7.833-0.178,16.976-0.178h0.415c9.136,0,14.625,0.125,16.969,0.178c0.608,0.014,0.991,0.022,1.157,0.022 c0.943,0.053,1.875,0.082,2.766,0.11c6.018,0.188,9.65,0.302,11.177,6.776c0.751,4.042,1.221,9.533,1.221,14.31 c-0.045,1.013-0.075,2.07-0.105,3.134c-0.241,8.448-0.491,17.184-8.292,17.872C60.592,77.288,48.803,77.498,40,77.5L40,77.5z" clip-rule="evenodd"/><path fill="#c74343" d="M39.784,35l0.103,0.001l0.125,0.001l0.101-0.001L40.209,35c9.134,0,14.617,0.124,16.959,0.178 c0.581,0.013,0.959,0.022,1.14,0.022c0.965,0.053,1.892,0.082,2.779,0.11c5.975,0.187,9.267,0.291,10.695,6.344 c0.751,4.036,1.218,9.493,1.219,14.198c-0.045,1.037-0.075,2.097-0.106,3.163c-0.246,8.608-0.478,16.739-7.834,17.388 C60.558,76.788,48.788,76.998,40,77c-8.788-0.002-20.558-0.212-25.058-0.596c-7.359-0.649-7.591-8.78-7.837-17.388 c-0.03-1.066-0.061-2.126-0.105-3.12c0-4.748,0.467-10.205,1.208-14.195c1.438-6.1,4.73-6.203,10.705-6.391 c0.887-0.028,1.814-0.057,2.779-0.11c0.181-0.001,0.559-0.009,1.14-0.022C25.174,35.124,30.659,35,39.784,35 M40.204,34 c-0.071,0.001-0.134,0.001-0.204,0.002c-0.071-0.001-0.133-0.001-0.204-0.002c-11.543,0-17.341,0.2-18.133,0.2 c-7.423,0.408-12.573-0.6-14.429,7.271C6.409,45.907,6,51.56,6,55.896c0.409,9.396-0.408,20.687,8.854,21.504 C19.582,77.804,31.853,77.998,40,78c8.147-0.002,20.418-0.196,25.146-0.6c9.262-0.817,8.445-12.108,8.854-21.504 c0-4.335-0.409-9.989-1.234-14.424C70.91,33.6,65.759,34.608,58.337,34.2C57.546,34.2,51.747,34,40.204,34L40.204,34z"/><path fill="#fff" d="M38 70h-4l0-2.75C33.5 68 32.25 69.999 29.582 70 28.249 70 26 69 26 66V48h4l-.001 17.25c0 .46.036 1.264 1.5 1.25 1.626-.016 2.5-2 2.5-2L34 48h4V70zM24 46L20 46 20 70 16.001 70 16.001 46 12.001 46 12.001 42 24 42zM54 53.12c0-1.726-.546-2.896-1.244-3.778C52.064 48.46 51.044 48 49.746 48c-.65 0-1.298.18-1.946.51-.65.324-1.34.89-1.8 1.61L46 42h-4v28h4c0 0 0-2.75 0-2.75.772.902 1.898 2.772 4 2.75 3 0 4-2.75 4-5L54 53.12zM50 64.046C50 65.15 49.104 66 48 66s-1.982-.424-2-1l0-11.88c.018-1.006.896-2 2-2s2 .878 2 2.88V64.046zM68 60v-6.215C68 51.783 66.999 48 61.997 48 57.245 48 56 51.972 56 53.785v9.445c0 2.052.556 3.637 1.617 4.799 1.07 1.162 2.553 1.721 4.456 1.721 2.077 0 3.662-.518 4.678-1.635C67.824 67.046 68 65.423 68 63.23V62h-4l-.002 1.046c0 1.21-.118 2.138-.398 2.47-.276.369-.79.532-1.603.54-.734.008-1.293-.197-1.569-.658-.282-.419-.432-1.141-.432-2.259L60 60H68zM59.996 54.018c.018-1.077.896-2.006 2.001-2.006 1.104 0 2.001.772 2.001 2.006v2.006h-4.002V54.018z"/><path fill="#36404d" d="M30 2L26 13.2 22 2 18 2 24 18.8 24 30 28 30 28 18.8 34 2zM56 9v15.5c0 0-.875 1.984-2.501 2-1.464.014-1.5-.79-1.5-1.25L52 9h-4l0 17c0 3 2.249 4 3.582 4 2.667-.001 3.917-2 4.417-2.75L56 29.75h4V9L56 9zM39.5 30c-3.309 0-6-2.748-6-6.125v-9c0-3.377 2.691-6.125 6-6.125s6 2.748 6 6.125v9C45.5 27.252 42.809 30 39.5 30zM39.5 12.5c-1.104 0-2 .991-2 2.208v9.333c0 1.218.896 2.208 2 2.208s2-.991 2-2.208v-9.333C41.5 13.491 40.604 12.5 39.5 12.5z"/></svg>